<?xml version="1.0" encoding="UTF-8"?>
<svg version="1.1" xmlns="http://www.w3.org/2000/svg" width="1800" height="1800">
<path d="M0 0 C1.63277697 0.17367424 3.26559044 0.34700555 4.8984375 0.52001953 C82.37371314 8.84613004 158.89022166 27.29935897 231 57 C232.1226123 57.45874512 233.24522461 57.91749023 234.40185547 58.39013672 C262.45659512 69.91964856 290.32915513 82.69074572 316.70166016 97.70019531 C318.95965016 98.97718052 321.23169386 100.22379172 323.51171875 101.4609375 C353.93840366 118.00555208 383.30918745 137.19744928 411 158 C411.82854492 158.62036133 412.65708984 159.24072266 413.51074219 159.87988281 C425.21696262 168.66490224 436.74505836 177.64322529 448 187 C448.58749023 187.48839355 449.17498047 187.97678711 449.78027344 188.47998047 C456.21852477 193.84879678 462.544999 199.32664573 468.75 204.96484375 C470.74989375 206.77377543 472.77269432 208.54891801 474.8125 210.3125 C486.3137797 220.37215716 497.19006314 231.03091494 507.97705078 241.84667969 C510.38850966 244.26353992 512.80532439 246.6749529 515.22265625 249.0859375 C516.78157102 250.64551251 518.34017586 252.2053974 519.8984375 253.765625 C520.96425552 254.82840668 520.96425552 254.82840668 522.05160522 255.91265869 C526.02603201 259.90555636 529.82946132 263.99502433 533.50408936 268.26597595 C535.57369105 270.66500903 537.72520019 272.98535981 539.875 275.3125 C543.94859909 279.77873514 547.80827703 284.36921379 551.6015625 289.07421875 C553.772257 291.72218321 555.99265527 294.31124103 558.24194336 296.8918457 C564.92843736 304.57638851 571.15317316 312.55396811 577.26855469 320.69775391 C579.05946957 323.07907474 580.86106871 325.4520334 582.6640625 327.82421875 C609.07249446 362.66700886 632.23284509 399.55021476 653 438 C653.52932129 438.97743164 654.05864258 439.95486328 654.60400391 440.96191406 C695.96046051 517.69747569 723.54387942 602.3522609 744.8125 735.1875 C744.96168884 736.49732849 744.96168884 736.49732849 745.1138916 737.83361816 C748.38194131 766.93731688 749.3805722 795.91165297 749.31805801 825.16936111 C749.31241182 827.85443431 749.30959503 830.53950117 749.30697632 833.22457886 C749.2700802 859.25354804 748.86047319 885.10475464 746 911 C745.82632576 912.63277697 745.65299445 914.26559044 745.47998047 915.8984375 C741.27173368 955.05658696 734.36413309 993.75237941 725 1032 C724.82873596 1032.70050476 724.65747192 1033.40100952 724.48101807 1034.1227417 C715.0248502 1072.56479456 702.37549671 1110.52919913 687 1147 C686.54882812 1148.07362793 686.09765625 1149.14725586 685.6328125 1150.25341797 C682.53977898 1157.55704926 679.30368996 1164.78950819 676 1172 C675.71167297 1172.63143921 675.42334595 1173.26287842 675.12628174 1173.91345215 C651.21445337 1226.26118297 622.07276841 1275.60999436 588 1322 C587.4961377 1322.68690918 586.99227539 1323.37381836 586.47314453 1324.08154297 C579.40413593 1333.69014984 572.03744696 1343.01935181 564.45605469 1352.22802734 C563.16496651 1353.79924095 561.88261416 1355.37762391 560.6015625 1356.95703125 C551.312992 1368.40846384 541.67231995 1379.48651435 531.60180664 1390.25463867 C530.48153107 1391.47531388 529.37777031 1392.71125899 528.28686523 1393.95825195 C520.8773913 1402.38947152 512.89612197 1410.2544602 504.95239258 1418.17797852 C502.43650714 1420.68849074 499.92602814 1423.20432064 497.41601562 1425.72070312 C495.79719563 1427.33886249 494.17806555 1428.95671172 492.55859375 1430.57421875 C491.81878769 1431.31604904 491.07898163 1432.05787933 490.3167572 1432.82218933 C486.24349908 1436.8773919 482.08140429 1440.76810909 477.72262573 1444.51548767 C475.32655833 1446.58035384 473.01071164 1448.72882937 470.6875 1450.875 C466.22126486 1454.94859909 461.63078621 1458.80827703 456.92578125 1462.6015625 C454.27781679 1464.772257 451.68875897 1466.99265527 449.1081543 1469.24194336 C441.42361149 1475.92843736 433.44603189 1482.15317316 425.30224609 1488.26855469 C422.92092526 1490.05946957 420.5479666 1491.86106871 418.17578125 1493.6640625 C383.33299114 1520.07249446 346.44978524 1543.23284509 308 1564 C307.02256836 1564.52932129 306.04513672 1565.05864258 305.03808594 1565.60400391 C226.78201186 1607.77993724 140.21746596 1635.63988649 10.8125 1655.8125 C9.50267151 1655.96168884 9.50267151 1655.96168884 8.16638184 1656.1138916 C-20.93731688 1659.38194131 -49.91165297 1660.3805722 -79.16936111 1660.31805801 C-81.85443431 1660.31241182 -84.53950117 1660.30959503 -87.22457886 1660.30697632 C-113.25354804 1660.2700802 -139.10475464 1659.86047319 -165 1657 C-166.63277697 1656.82632576 -168.26559044 1656.65299445 -169.8984375 1656.47998047 C-209.05658696 1652.27173368 -247.75237941 1645.36413309 -286 1636 C-286.70050476 1635.82873596 -287.40100952 1635.65747192 -288.1227417 1635.48101807 C-324.78126609 1626.46357143 -361.20590954 1614.63150084 -396 1600 C-397.07137207 1599.55833496 -398.14274414 1599.11666992 -399.24658203 1598.66162109 C-427.35228158 1587.07458244 -455.26876541 1574.34362404 -481.70166016 1559.29980469 C-483.95965016 1558.02281948 -486.23169386 1556.77620828 -488.51171875 1555.5390625 C-518.93840366 1538.99444792 -548.30918745 1519.80255072 -576 1499 C-577.24281738 1498.06945801 -577.24281738 1498.06945801 -578.51074219 1497.12011719 C-590.21696262 1488.33509776 -601.74505836 1479.35677471 -613 1470 C-613.58749023 1469.51160645 -614.17498047 1469.02321289 -614.78027344 1468.52001953 C-621.21852477 1463.15120322 -627.544999 1457.67335427 -633.75 1452.03515625 C-635.74989375 1450.22622457 -637.77269432 1448.45108199 -639.8125 1446.6875 C-651.3137797 1436.62784284 -662.19006314 1425.96908506 -672.97705078 1415.15332031 C-675.38850966 1412.73646008 -677.80532439 1410.3250471 -680.22265625 1407.9140625 C-681.78157102 1406.35448749 -683.34017586 1404.7946026 -684.8984375 1403.234375 C-685.60898285 1402.52585388 -686.3195282 1401.81733276 -687.05160522 1401.08734131 C-691.02603201 1397.09444364 -694.82946132 1393.00497567 -698.50408936 1388.73402405 C-700.57369105 1386.33499097 -702.72520019 1384.01464019 -704.875 1381.6875 C-708.94859909 1377.22126486 -712.80827703 1372.63078621 -716.6015625 1367.92578125 C-718.772257 1365.27781679 -720.99265527 1362.68875897 -723.24194336 1360.1081543 C-729.92843736 1352.42361149 -736.15317316 1344.44603189 -742.26855469 1336.30224609 C-744.05946957 1333.92092526 -745.86106871 1331.5479666 -747.6640625 1329.17578125 C-774.07249446 1294.33299114 -797.23284509 1257.44978524 -818 1219 C-818.52932129 1218.02256836 -819.05864258 1217.04513672 -819.60400391 1216.03808594 C-860.97696188 1139.27190654 -888.94466046 1054.30108564 -909.8125 921.25 C-909.91195923 920.40247162 -910.01141846 919.55494324 -910.1138916 918.68173218 C-913.4639379 889.75243636 -914.38021516 860.92124517 -914.31805801 831.83063889 C-914.31241182 829.14556569 -914.30959503 826.46049883 -914.30697632 823.77542114 C-914.2700802 797.74645196 -913.86047319 771.89524536 -911 746 C-910.82632576 744.36722303 -910.65299445 742.73440956 -910.47998047 741.1015625 C-902.15386996 663.62628686 -883.70064103 587.10977834 -854 515 C-853.54125488 513.8773877 -853.08250977 512.75477539 -852.60986328 511.59814453 C-841.11792224 483.63482583 -828.41948824 455.79625914 -813.43310547 429.52197266 C-811.91599221 426.85216347 -810.42704907 424.16790636 -808.94140625 421.48046875 C-784.6540236 377.73019203 -755.98486522 336.47349141 -724 298 C-723.51160645 297.41250977 -723.02321289 296.82501953 -722.52001953 296.21972656 C-717.15120322 289.78147523 -711.67335427 283.455001 -706.03515625 277.25 C-704.22622457 275.25010625 -702.45108199 273.22730568 -700.6875 271.1875 C-690.62784284 259.6862203 -679.96908506 248.80993686 -669.15332031 238.02294922 C-666.73646008 235.61149034 -664.3250471 233.19467561 -661.9140625 230.77734375 C-660.35448749 229.21842898 -658.7946026 227.65982414 -657.234375 226.1015625 C-656.52585388 225.39101715 -655.81733276 224.6804718 -655.08734131 223.94839478 C-651.09444364 219.97396799 -647.00497567 216.17053868 -642.73402405 212.49591064 C-640.33499097 210.42630895 -638.01464019 208.27479981 -635.6875 206.125 C-631.22126486 202.05140091 -626.63078621 198.19172297 -621.92578125 194.3984375 C-619.27781679 192.227743 -616.68875897 190.00734473 -614.1081543 187.75805664 C-606.42361149 181.07156264 -598.44603189 174.84682684 -590.30224609 168.73144531 C-587.92092526 166.94053043 -585.5479666 165.13893129 -583.17578125 163.3359375 C-548.33299114 136.92750554 -511.44978524 113.76715491 -473 93 C-472.02256836 92.47067871 -471.04513672 91.94135742 -470.03808594 91.39599609 C-392.31586419 49.50778126 -306.06410831 21.32790306 -167.09344482 0.21289062 C-164.99762006 -0.00024203 -162.90341025 -0.22579874 -160.80908203 -0.453125 C-108.24763857 -6.04131872 -52.52662693 -5.80226238 0 0 Z " fill="#000000" transform="translate(972,60)"/>
<path d="M0 0 C1.63277697 0.17367424 3.26559044 0.34700555 4.8984375 0.52001953 C82.37371314 8.84613004 158.89022166 27.29935897 231 57 C232.1226123 57.45874512 233.24522461 57.91749023 234.40185547 58.39013672 C262.45659512 69.91964856 290.32915513 82.69074572 316.70166016 97.70019531 C318.95965016 98.97718052 321.23169386 100.22379172 323.51171875 101.4609375 C353.93840366 118.00555208 383.30918745 137.19744928 411 158 C411.82854492 158.62036133 412.65708984 159.24072266 413.51074219 159.87988281 C425.21696262 168.66490224 436.74505836 177.64322529 448 187 C448.58749023 187.48839355 449.17498047 187.97678711 449.78027344 188.47998047 C456.21852477 193.84879678 462.544999 199.32664573 468.75 204.96484375 C470.74989375 206.77377543 472.77269432 208.54891801 474.8125 210.3125 C486.3137797 220.37215716 497.19006314 231.03091494 507.97705078 241.84667969 C510.38850966 244.26353992 512.80532439 246.6749529 515.22265625 249.0859375 C516.78157102 250.64551251 518.34017586 252.2053974 519.8984375 253.765625 C520.96425552 254.82840668 520.96425552 254.82840668 522.05160522 255.91265869 C526.02603201 259.90555636 529.82946132 263.99502433 533.50408936 268.26597595 C535.57369105 270.66500903 537.72520019 272.98535981 539.875 275.3125 C543.94859909 279.77873514 547.80827703 284.36921379 551.6015625 289.07421875 C553.772257 291.72218321 555.99265527 294.31124103 558.24194336 296.8918457 C564.92843736 304.57638851 571.15317316 312.55396811 577.26855469 320.69775391 C579.05946957 323.07907474 580.86106871 325.4520334 582.6640625 327.82421875 C609.07249446 362.66700886 632.23284509 399.55021476 653 438 C653.52932129 438.97743164 654.05864258 439.95486328 654.60400391 440.96191406 C695.96046051 517.69747569 723.54387942 602.3522609 744.8125 735.1875 C744.96168884 736.49732849 744.96168884 736.49732849 745.1138916 737.83361816 C748.38194131 766.93731688 749.3805722 795.91165297 749.31805801 825.16936111 C749.31241182 827.85443431 749.30959503 830.53950117 749.30697632 833.22457886 C749.2700802 859.25354804 748.86047319 885.10475464 746 911 C745.82632576 912.63277697 745.65299445 914.26559044 745.47998047 915.8984375 C741.27173368 955.05658696 734.36413309 993.75237941 725 1032 C724.82873596 1032.70050476 724.65747192 1033.40100952 724.48101807 1034.1227417 C715.0248502 1072.56479456 702.37549671 1110.52919913 687 1147 C686.54882812 1148.07362793 686.09765625 1149.14725586 685.6328125 1150.25341797 C682.53977898 1157.55704926 679.30368996 1164.78950819 676 1172 C675.71167297 1172.63143921 675.42334595 1173.26287842 675.12628174 1173.91345215 C651.21445337 1226.26118297 622.07276841 1275.60999436 588 1322 C587.4961377 1322.68690918 586.99227539 1323.37381836 586.47314453 1324.08154297 C579.40413593 1333.69014984 572.03744696 1343.01935181 564.45605469 1352.22802734 C563.16496651 1353.79924095 561.88261416 1355.37762391 560.6015625 1356.95703125 C551.312992 1368.40846384 541.67231995 1379.48651435 531.60180664 1390.25463867 C530.48153107 1391.47531388 529.37777031 1392.71125899 528.28686523 1393.95825195 C520.8773913 1402.38947152 512.89612197 1410.2544602 504.95239258 1418.17797852 C502.43650714 1420.68849074 499.92602814 1423.20432064 497.41601562 1425.72070312 C495.79719563 1427.33886249 494.17806555 1428.95671172 492.55859375 1430.57421875 C491.81878769 1431.31604904 491.07898163 1432.05787933 490.3167572 1432.82218933 C486.24349908 1436.8773919 482.08140429 1440.76810909 477.72262573 1444.51548767 C475.32655833 1446.58035384 473.01071164 1448.72882937 470.6875 1450.875 C466.22126486 1454.94859909 461.63078621 1458.80827703 456.92578125 1462.6015625 C454.27781679 1464.772257 451.68875897 1466.99265527 449.1081543 1469.24194336 C441.42361149 1475.92843736 433.44603189 1482.15317316 425.30224609 1488.26855469 C422.92092526 1490.05946957 420.5479666 1491.86106871 418.17578125 1493.6640625 C383.33299114 1520.07249446 346.44978524 1543.23284509 308 1564 C307.02256836 1564.52932129 306.04513672 1565.05864258 305.03808594 1565.60400391 C226.78201186 1607.77993724 140.21746596 1635.63988649 10.8125 1655.8125 C9.50267151 1655.96168884 9.50267151 1655.96168884 8.16638184 1656.1138916 C-20.93731688 1659.38194131 -49.91165297 1660.3805722 -79.16936111 1660.31805801 C-81.85443431 1660.31241182 -84.53950117 1660.30959503 -87.22457886 1660.30697632 C-113.25354804 1660.2700802 -139.10475464 1659.86047319 -165 1657 C-166.63277697 1656.82632576 -168.26559044 1656.65299445 -169.8984375 1656.47998047 C-209.05658696 1652.27173368 -247.75237941 1645.36413309 -286 1636 C-286.70050476 1635.82873596 -287.40100952 1635.65747192 -288.1227417 1635.48101807 C-324.78126609 1626.46357143 -361.20590954 1614.63150084 -396 1600 C-397.07137207 1599.55833496 -398.14274414 1599.11666992 -399.24658203 1598.66162109 C-427.35228158 1587.07458244 -455.26876541 1574.34362404 -481.70166016 1559.29980469 C-483.95965016 1558.02281948 -486.23169386 1556.77620828 -488.51171875 1555.5390625 C-518.93840366 1538.99444792 -548.30918745 1519.80255072 -576 1499 C-577.24281738 1498.06945801 -577.24281738 1498.06945801 -578.51074219 1497.12011719 C-590.21696262 1488.33509776 -601.74505836 1479.35677471 -613 1470 C-613.58749023 1469.51160645 -614.17498047 1469.02321289 -614.78027344 1468.52001953 C-621.21852477 1463.15120322 -627.544999 1457.67335427 -633.75 1452.03515625 C-635.74989375 1450.22622457 -637.77269432 1448.45108199 -639.8125 1446.6875 C-651.3137797 1436.62784284 -662.19006314 1425.96908506 -672.97705078 1415.15332031 C-675.38850966 1412.73646008 -677.80532439 1410.3250471 -680.22265625 1407.9140625 C-681.78157102 1406.35448749 -683.34017586 1404.7946026 -684.8984375 1403.234375 C-685.60898285 1402.52585388 -686.3195282 1401.81733276 -687.05160522 1401.08734131 C-691.02603201 1397.09444364 -694.82946132 1393.00497567 -698.50408936 1388.73402405 C-700.57369105 1386.33499097 -702.72520019 1384.01464019 -704.875 1381.6875 C-708.94859909 1377.22126486 -712.80827703 1372.63078621 -716.6015625 1367.92578125 C-718.772257 1365.27781679 -720.99265527 1362.68875897 -723.24194336 1360.1081543 C-729.92843736 1352.42361149 -736.15317316 1344.44603189 -742.26855469 1336.30224609 C-744.05946957 1333.92092526 -745.86106871 1331.5479666 -747.6640625 1329.17578125 C-774.07249446 1294.33299114 -797.23284509 1257.44978524 -818 1219 C-818.52932129 1218.02256836 -819.05864258 1217.04513672 -819.60400391 1216.03808594 C-860.97696188 1139.27190654 -888.94466046 1054.30108564 -909.8125 921.25 C-909.91195923 920.40247162 -910.01141846 919.55494324 -910.1138916 918.68173218 C-913.4639379 889.75243636 -914.38021516 860.92124517 -914.31805801 831.83063889 C-914.31241182 829.14556569 -914.30959503 826.46049883 -914.30697632 823.77542114 C-914.2700802 797.74645196 -913.86047319 771.89524536 -911 746 C-910.82632576 744.36722303 -910.65299445 742.73440956 -910.47998047 741.1015625 C-902.15386996 663.62628686 -883.70064103 587.10977834 -854 515 C-853.54125488 513.8773877 -853.08250977 512.75477539 -852.60986328 511.59814453 C-841.11792224 483.63482583 -828.41948824 455.79625914 -813.43310547 429.52197266 C-811.91599221 426.85216347 -810.42704907 424.16790636 -808.94140625 421.48046875 C-784.6540236 377.73019203 -755.98486522 336.47349141 -724 298 C-723.51160645 297.41250977 -723.02321289 296.82501953 -722.52001953 296.21972656 C-717.15120322 289.78147523 -711.67335427 283.455001 -706.03515625 277.25 C-704.22622457 275.25010625 -702.45108199 273.22730568 -700.6875 271.1875 C-690.62784284 259.6862203 -679.96908506 248.80993686 -669.15332031 238.02294922 C-666.73646008 235.61149034 -664.3250471 233.19467561 -661.9140625 230.77734375 C-660.35448749 229.21842898 -658.7946026 227.65982414 -657.234375 226.1015625 C-656.52585388 225.39101715 -655.81733276 224.6804718 -655.08734131 223.94839478 C-651.09444364 219.97396799 -647.00497567 216.17053868 -642.73402405 212.49591064 C-640.33499097 210.42630895 -638.01464019 208.27479981 -635.6875 206.125 C-631.22126486 202.05140091 -626.63078621 198.19172297 -621.92578125 194.3984375 C-619.27781679 192.227743 -616.68875897 190.00734473 -614.1081543 187.75805664 C-606.42361149 181.07156264 -598.44603189 174.84682684 -590.30224609 168.73144531 C-587.92092526 166.94053043 -585.5479666 165.13893129 -583.17578125 163.3359375 C-548.33299114 136.92750554 -511.44978524 113.76715491 -473 93 C-472.02256836 92.47067871 -471.04513672 91.94135742 -470.03808594 91.39599609 C-392.31586419 49.50778126 -306.06410831 21.32790306 -167.09344482 0.21289062 C-164.99762006 -0.00024203 -162.90341025 -0.22579874 -160.80908203 -0.453125 C-108.24763857 -6.04131872 -52.52662693 -5.80226238 0 0 Z M-253 55 C-254.05058594 55.23025879 -255.10117187 55.46051758 -256.18359375 55.69775391 C-337.89718093 73.72621986 -415.51184814 105.37756686 -513.30517578 163.86816406 C-514.89393102 164.92916511 -516.49159271 165.97679522 -518.08984375 167.0234375 C-541.98744003 182.74131962 -565.17033389 199.79419954 -586.9140625 218.3828125 C-589.75605565 220.80691756 -592.65290065 223.15731399 -595.5625 225.5 C-600.55168418 229.55825768 -605.27670615 233.84515566 -609.98046875 238.2265625 C-612.24105828 240.32374053 -614.54772381 242.35993123 -616.875 244.3828125 C-627.69361485 253.81376957 -637.96332893 263.87116308 -648.125 274 C-648.90593018 274.77633789 -649.68686035 275.55267578 -650.49145508 276.35253906 C-654.60777266 280.47994228 -658.55278764 284.69365689 -662.35595703 289.11083984 C-664.94715508 292.08837036 -667.66699233 294.94163892 -670.375 297.8125 C-675.02315533 302.77973093 -679.44478536 307.85576033 -683.69921875 313.16796875 C-686.35910377 316.44202078 -689.11271379 319.6249769 -691.875 322.8125 C-697.25077696 329.04914545 -702.39896842 335.43024838 -707.421875 341.95361328 C-708.5433419 343.40784218 -709.66875916 344.85902841 -710.796875 346.30810547 C-721.08066494 359.52078985 -730.74244899 373.05058308 -740 387 C-740.54188965 387.81227051 -741.0837793 388.62454102 -741.64208984 389.46142578 C-755.9618695 410.97411044 -769.37334871 433.07472987 -781.39648438 455.953125 C-783.05855331 459.11125842 -784.73998606 462.25863372 -786.421875 465.40625 C-813.91227256 517.21758202 -834.80801227 572.70033613 -849.12060547 629.53515625 C-849.99130223 632.96573051 -850.88565337 636.38937819 -851.78515625 639.8125 C-861.32833137 676.47397987 -866.65011364 713.90448576 -870.72094727 751.52563477 C-870.95562118 753.60649229 -871.22917012 755.68291343 -871.51171875 757.7578125 C-880.49123767 829.36812084 -874.2772118 905.53615874 -860.54394531 976.16113281 C-860.04055259 978.78835481 -859.57132982 981.41857403 -859.1171875 984.0546875 C-854.62126249 1009.70579695 -848.11092328 1035.26448086 -840 1060 C-839.56873916 1061.33075135 -839.13794232 1062.66165313 -838.70751953 1063.99267578 C-818.55584488 1126.21226389 -792.66525194 1186.07500152 -758.07714844 1241.66015625 C-756.02202338 1244.96458864 -753.98239335 1248.27817067 -751.9453125 1251.59375 C-745.31339682 1262.34794048 -738.4960112 1272.8322686 -731 1283 C-730.20548335 1284.1164669 -729.41386893 1285.23500417 -728.625 1286.35546875 C-721.99936072 1295.76382312 -715.04436441 1304.9022968 -708 1314 C-707.51885742 1314.62438965 -707.03771484 1315.2487793 -706.54199219 1315.89208984 C-700.99336778 1323.08741533 -695.28391423 1330.10313314 -689.33081055 1336.96826172 C-686.39168966 1340.35915308 -683.54221715 1343.79834078 -680.75 1347.3125 C-675.49275573 1353.79102787 -669.71554044 1359.77172191 -663.96875 1365.8125 C-661.13109785 1368.79553471 -658.333453 1371.80878407 -655.56665039 1374.85742188 C-649.95926836 1381.02762664 -644.13588231 1386.97042155 -638.25 1392.875 C-637.45746826 1393.67212402 -636.66493652 1394.46924805 -635.84838867 1395.29052734 C-631.6611684 1399.46679204 -627.39399039 1403.4763667 -622.91162109 1407.33349609 C-619.75089883 1410.08893545 -616.73047661 1412.99105129 -613.6875 1415.875 C-608.56977623 1420.6880672 -603.3605826 1425.27912694 -597.8671875 1429.6640625 C-594.37841456 1432.50641429 -591.00724101 1435.47002179 -587.625 1438.4375 C-581.57509781 1443.71658862 -575.36736917 1448.70360163 -568.9453125 1453.52734375 C-566.680299 1455.24202264 -564.43387828 1456.9797313 -562.1875 1458.71875 C-551.40890286 1467.04007644 -540.46781285 1475.00190783 -529.14453125 1482.56542969 C-527.16277493 1483.89111276 -525.18944903 1485.22827065 -523.21875 1486.5703125 C-450.98002901 1535.56327166 -369.57255664 1572.84164584 -281.46484375 1595.12060547 C-278.03426949 1595.99130223 -274.61062181 1596.88565337 -271.1875 1597.78515625 C-243.38705849 1605.0217567 -215.30590615 1609.6401844 -186.86816406 1613.47265625 C-183.51027474 1613.93043465 -180.15723762 1614.41122763 -176.8046875 1614.90625 C-161.86868974 1617.06286109 -146.9009834 1617.97410423 -131.84204102 1618.77954102 C-129.37253435 1618.92124302 -126.90399088 1619.08163927 -124.43725586 1619.26538086 C-68.07754518 1623.38889806 -10.64024557 1619.15969016 45 1610 C46.81491943 1609.70561035 46.81491943 1609.70561035 48.66650391 1609.40527344 C54.31911923 1608.4809253 59.95743452 1607.49913531 65.58740234 1606.44580078 C67.96807378 1606.00589934 70.35208802 1605.59236031 72.73828125 1605.18359375 C98.49530116 1600.66148798 124.16031517 1594.14507983 149 1586 C150.33075135 1585.56873916 151.66165313 1585.13794232 152.99267578 1584.70751953 C227.09730371 1560.70651924 297.65894318 1528.18722989 362 1484 C363.16958252 1483.20094238 363.16958252 1483.20094238 364.36279297 1482.38574219 C377.56902416 1473.34254534 390.34845723 1463.80078829 403 1454 C403.67820801 1453.47776855 404.35641602 1452.95553711 405.05517578 1452.41748047 C412.20038444 1446.91476347 419.15510893 1441.23852024 425.96923828 1435.33007812 C429.35971521 1432.39109448 432.79865811 1429.541965 436.3125 1426.75 C442.79102787 1421.49275573 448.77172191 1415.71554044 454.8125 1409.96875 C457.79553471 1407.13109785 460.80878407 1404.333453 463.85742188 1401.56665039 C470.02762664 1395.95926836 475.97042155 1390.13588231 481.875 1384.25 C482.67212402 1383.45746826 483.46924805 1382.66493652 484.29052734 1381.84838867 C488.46679204 1377.6611684 492.4763667 1373.39399039 496.33349609 1368.91162109 C499.08893545 1365.75089883 501.99105129 1362.73047661 504.875 1359.6875 C509.6880672 1354.56977623 514.27912694 1349.3605826 518.6640625 1343.8671875 C521.50641429 1340.37841456 524.47002179 1337.00724101 527.4375 1333.625 C532.71658862 1327.57509781 537.70360163 1321.36736917 542.52734375 1314.9453125 C544.24202264 1312.680299 545.9797313 1310.43387828 547.71875 1308.1875 C556.04007644 1297.40890286 564.00190783 1286.46781285 571.56542969 1275.14453125 C572.89111276 1273.16277493 574.22827065 1271.18944903 575.5703125 1269.21875 C624.01533254 1197.78794961 661.43317292 1116.61949985 683 1033 C683.2582959 1032.01999023 683.5165918 1031.03998047 683.78271484 1030.03027344 C687.79244589 1014.79774795 691.06846471 999.47340801 694 984 C694.25861816 982.66050293 694.25861816 982.66050293 694.52246094 981.29394531 C696.80637794 969.44696063 698.73985489 957.55038568 700.5625 945.625 C700.76037109 944.33787109 700.95824219 943.05074219 701.16210938 941.72460938 C704.14675908 921.87619629 706.50689001 902.04123389 707.6875 882 C707.75037201 880.9540567 707.81324402 879.9081134 707.87802124 878.83047485 C710.57698585 832.74116018 710.64828689 785.74302456 704.52001953 739.90332031 C704.12974095 736.97384901 703.74817123 734.04389941 703.37451172 731.11230469 C697.53233947 685.34660545 689.02870138 640.03619314 675 596 C674.70346527 595.06429169 674.70346527 595.06429169 674.40093994 594.10968018 C663.65466797 560.23901158 651.11894866 527.17119585 636 495 C635.70138062 494.36364624 635.40276123 493.72729248 635.09509277 493.07165527 C619.62479461 460.15123517 602.35671441 427.95015786 582.12304688 397.68164062 C581.08843452 396.13242108 580.0670212 394.57440839 579.046875 393.015625 C564.36339674 370.68193118 548.39172375 349.30976008 531.39160156 328.69140625 C529.39381881 326.26322399 527.41818576 323.81713585 525.4375 321.375 C516.21916372 310.14539034 506.63356636 299.34676303 496.66552734 288.77880859 C495.13344339 287.14251958 493.61894926 285.49260984 492.11328125 283.83203125 C485.9959732 277.09039919 479.67704996 270.57250051 473.25 264.125 C472.06144409 262.92955566 472.06144409 262.92955566 470.84887695 261.70996094 C466.66149361 257.5335313 462.39416627 253.52378465 457.91162109 249.66650391 C454.75089883 246.91106455 451.73047661 244.00894871 448.6875 241.125 C443.56977623 236.3119328 438.3605826 231.72087306 432.8671875 227.3359375 C429.37841456 224.49358571 426.00724101 221.52997821 422.625 218.5625 C416.57509781 213.28341138 410.36736917 208.29639837 403.9453125 203.47265625 C401.680299 201.75797736 399.43387828 200.0202687 397.1875 198.28125 C386.40890286 189.95992356 375.46781285 181.99809217 364.14453125 174.43457031 C362.16277493 173.10888724 360.18944903 171.77172935 358.21875 170.4296875 C335.53062639 155.04359448 311.75568289 141.39990766 287.62988281 128.41699219 C285.20510369 127.11051075 282.7859718 125.79409468 280.3671875 124.4765625 C243.32654956 104.45928529 203.83838005 89.11113147 164.00418091 75.67636108 C162.01142061 75.00385417 160.02022634 74.32684625 158.02905273 73.6496582 C150.4282226 71.07640538 142.79840899 68.69614664 135.0625 66.5625 C133.99966797 66.26811035 132.93683594 65.9737207 131.84179688 65.67041016 C112.36763456 60.31875392 92.84312857 55.75940657 73 52 C72.10700195 51.82758789 71.21400391 51.65517578 70.29394531 51.47753906 C58.26098561 49.15776893 46.17733823 47.21074662 34.0625 45.375 C33.37397949 45.27058594 32.68545898 45.16617188 31.97607422 45.05859375 C27.31980889 44.35508916 22.66083082 43.67260671 18 43 C16.83307617 42.82903809 15.66615234 42.65807617 14.46386719 42.48193359 C-73.88909393 30.05691739 -166.11686166 35.73846037 -253 55 Z " fill="#FEFEFE" transform="translate(972,60)"/>
<path d="M0 0 C3.53843727 0.03142005 7.0764265 0.04101605 10.61499023 0.046875 C12.90470913 0.05603896 15.19442358 0.06641278 17.48413086 0.078125 C18.5219017 0.08237488 19.55967255 0.08662476 20.62889099 0.09100342 C27.65169279 0.1585518 34.59154478 0.60879333 41.58178711 1.28125 C41.58178711 1.94125 41.58178711 2.60125 41.58178711 3.28125 C42.7284082 3.22904297 42.7284082 3.22904297 43.89819336 3.17578125 C52.84063221 2.94979904 60.87886354 4.35982531 69.58178711 6.28125 C72.58642948 6.82627815 75.59387072 7.34522866 78.60522461 7.8515625 C80.58178711 8.28125 80.58178711 8.28125 81.58178711 9.28125 C83.82861898 9.81386552 86.0884419 10.24426616 88.35522461 10.68359375 C90.58178711 11.28125 90.58178711 11.28125 93.58178711 13.28125 C95.61084277 13.88766748 97.65539734 14.44281364 99.70678711 14.96875 C107.65517999 17.16566604 115.10118596 20.2413022 122.67407227 23.47802734 C126.01639368 24.88527555 129.40592831 26.1717049 132.79663086 27.45703125 C134.58178711 28.28125 134.58178711 28.28125 136.58178711 30.28125 C138.2387609 30.97165574 139.90736321 31.6343135 141.58178711 32.28125 C145.85068079 34.27340038 149.74433888 36.6287926 153.70288086 39.16015625 C155.64305992 40.39132103 155.64305992 40.39132103 158.20678711 41.28125 C160.91433143 42.42126866 162.79748389 44.0806147 164.99584961 46 C167.05399614 47.66273907 169.32286981 48.87474477 171.63256836 50.15234375 C184.64892351 57.69087409 196.45697388 68.2159428 207.58178711 78.28125 C208.92756836 79.47234375 208.92756836 79.47234375 210.30053711 80.6875 C226.36263077 95.01898 240.55539499 111.55535582 252.41772461 129.51953125 C253.24592013 130.77294125 254.07987392 132.02255464 254.91772461 133.26953125 C262.52352978 144.59419697 270.07496576 155.95868469 273.58178711 169.28125 C274.24178711 169.28125 274.90178711 169.28125 275.58178711 169.28125 C281.51084762 184.01755573 281.51084762 184.01755573 283.20678711 188.59375 C283.93989726 190.55981814 284.68477896 192.52286802 285.50756836 194.453125 C288.12367044 200.6348025 289.91404763 206.910919 291.57397461 213.40625 C292.53025908 217.14156078 293.61220138 220.83398263 294.70678711 224.53125 C296.86356808 232.02903583 298.74951163 239.44012879 298.58178711 247.28125 C299.24178711 247.28125 299.90178711 247.28125 300.58178711 247.28125 C302.27523938 257.57407693 303.82528298 267.87074774 305.14428711 278.21875 C306.13393489 285.9391344 307.16509631 293.62549043 308.58178711 301.28125 C308.71697754 302.01988281 308.85216797 302.75851562 308.99145508 303.51953125 C310.14205538 309.7826931 311.34381285 316.0347922 312.58178711 322.28125 C312.73905273 323.07934082 312.89631836 323.87743164 313.05834961 324.69970703 C315.36277805 336.2194081 318.55907231 347.24442875 322.58178711 358.28125 C322.9362793 359.26738281 323.29077148 360.25351562 323.65600586 361.26953125 C331.37188934 381.08988621 342.61237993 399.52252037 355.58178711 416.28125 C356.23018555 417.12558594 356.87858398 417.96992187 357.54663086 418.83984375 C362.08175832 424.63627456 366.94940875 430.04686507 371.96850586 435.421875 C373.77918307 437.40306441 375.5010483 439.37537213 377.19506836 441.44921875 C379.08258386 443.68890572 380.82204195 445.51570144 383.08178711 447.34375 C386.08979764 449.84181883 388.81525125 452.51471415 391.58178711 455.28125 C397.68055164 460.91743359 404.05649617 466.15032989 410.58178711 471.28125 C411.701837 472.17024768 412.82161405 473.05958918 413.94116211 473.94921875 C426.39161645 484.60074961 426.39161645 484.60074961 440.58178711 492.28125 C440.58178711 492.94125 440.58178711 493.60125 440.58178711 494.28125 C441.12706055 494.53519531 441.67233398 494.78914063 442.23413086 495.05078125 C445.01516669 496.5083957 447.54494969 498.20701532 450.14428711 499.96875 C455.21732098 503.39445184 460.36570047 506.65848551 465.59741211 509.8359375 C466.25225586 510.31289062 466.90709961 510.78984375 467.58178711 511.28125 C467.58178711 511.94125 467.58178711 512.60125 467.58178711 513.28125 C468.60272461 513.405 468.60272461 513.405 469.64428711 513.53125 C473.45647781 514.50457528 476.2224904 516.23932455 479.58178711 518.28125 C479.58178711 518.94125 479.58178711 519.60125 479.58178711 520.28125 C474.86454554 520.54184419 471.58534897 519.77131522 467.23022461 517.98046875 C466.04944336 517.49771484 464.86866211 517.01496094 463.65209961 516.51757812 C463.04527344 516.26306885 462.43844727 516.00855957 461.81323242 515.74633789 C459.95975961 514.96999506 458.09975599 514.21140142 456.23803711 513.45507812 C446.71077124 509.52012969 446.71077124 509.52012969 442.58178711 506.28125 C440.34696496 505.46815212 440.34696496 505.46815212 437.95678711 504.90625 C433.34825387 503.61748009 429.39250032 501.76197555 425.16772461 499.54296875 C421.59093298 497.797797 417.89576914 496.53229866 414.12475586 495.2734375 C411.39430298 494.20809951 409.07905538 492.80645456 406.58178711 491.28125 C404.70911061 490.59131655 402.83576311 489.90305675 400.95678711 489.23046875 C396.98007956 487.64109386 393.21353481 485.63402167 389.39819336 483.6953125 C384.61247671 481.29249776 379.67874249 479.3188059 374.70678711 477.34375 C361.94899762 472.24451195 361.94899762 472.24451195 357.83178711 469.34375 C353.87250819 466.83113069 349.81875063 465.39767439 345.43334961 463.76953125 C340.95650568 462.07447293 336.58244651 460.15769722 332.20678711 458.21875 C331.45816406 457.89036133 330.70954102 457.56197266 329.93823242 457.22363281 C326.48319346 455.68310096 323.1418532 454.07795048 319.87475586 452.16796875 C317.02611479 450.5358292 314.33770199 449.29199299 311.26928711 448.15625 C308.35682706 447.07690034 306.79713169 446.49659458 304.58178711 444.28125 C301.44723072 442.84457832 298.28641314 441.55563708 295.07397461 440.3046875 C294.21030273 439.96695312 293.34663086 439.62921875 292.45678711 439.28125 C291.64983398 438.971875 290.84288086 438.6625 290.01147461 438.34375 C287.58178711 437.28125 287.58178711 437.28125 285.16772461 435.8046875 C282.30015235 434.11533224 279.46164898 433.03269787 276.33178711 431.90625 C271.52633279 430.10623168 267.19000318 428.06991868 262.77709961 425.47265625 C259.5885957 423.74224043 256.24796223 422.5124184 252.84350586 421.2734375 C250.44080898 420.21940467 248.65126872 418.88000936 246.58178711 417.28125 C244.25837195 416.23343532 241.93858307 415.24602028 239.58178711 414.28125 C237.99561291 413.60032996 236.41232787 412.91264595 234.83178711 412.21875 C234.09444336 411.89777344 233.35709961 411.57679688 232.59741211 411.24609375 C230.58178711 410.28125 230.58178711 410.28125 227.58178711 408.28125 C226.2598931 407.82960288 224.92458709 407.41631764 223.58178711 407.03125 C218.79941445 405.50430119 214.6818086 403.21259871 210.32397461 400.75 C207.07658572 399.0106578 203.76680388 397.72200836 200.32788086 396.41796875 C195.71222465 394.50736284 191.31118752 392.16367691 186.87866211 389.8671875 C183.81885644 388.39529046 180.824412 387.27368974 177.58178711 386.28125 C177.58178711 385.62125 177.58178711 384.96125 177.58178711 384.28125 C176.81866211 384.136875 176.05553711 383.9925 175.26928711 383.84375 C172.58178711 383.28125 172.58178711 383.28125 169.58178711 382.28125 C169.58178711 381.62125 169.58178711 380.96125 169.58178711 380.28125 C168.70200195 380.07048828 168.70200195 380.07048828 167.80444336 379.85546875 C161.08549668 378.11964245 155.39513145 375.1341619 149.38256836 371.7578125 C146.75778562 370.37403582 144.16710925 369.26654454 141.39428711 368.21875 C137.44019918 366.71806466 134.15843833 364.82177636 130.64038086 362.5 C127.60711996 360.70421746 124.38284284 359.56061182 121.09350586 358.31640625 C117.80992462 356.96314182 114.82629717 355.22223184 111.75756836 353.4453125 C109.59124092 352.28630787 107.4561853 351.4185353 105.14428711 350.59375 C101.58178711 349.28125 101.58178711 349.28125 99.58178711 347.28125 C97.6770649 346.57951024 95.77129921 345.88040712 93.85913086 345.19921875 C91.46441122 344.23393725 89.31701974 343.07125428 87.08178711 341.78125 C83.02715767 339.44719375 79.00066976 337.8077731 74.58178711 336.28125 C74.58178711 335.62125 74.58178711 334.96125 74.58178711 334.28125 C72.85895508 333.90806641 72.85895508 333.90806641 71.10131836 333.52734375 C66.49568225 332.37365169 62.4769958 330.50919026 58.26928711 328.34375 C57.56739258 327.99634766 56.86549805 327.64894531 56.14233398 327.29101562 C52.7416734 325.56961355 50.27335161 323.99473126 47.58178711 321.28125 C45.49154817 320.52785818 45.49154817 320.52785818 43.14428711 320.03125 C36.63762782 318.2333573 31.28117188 314.81406013 25.58178711 311.28125 C21.29462441 308.67274602 17.07519566 306.66706373 12.35131836 304.99609375 C10.13041065 304.09890587 8.49322118 302.71482555 6.58178711 301.28125 C4.64200168 300.55797531 2.70169192 299.83604343 0.75756836 299.12451172 C-2.58087556 297.83063994 -5.73547916 296.22721866 -8.91821289 294.59375 C-10.31138185 293.88790199 -11.70461293 293.18217658 -13.09790039 292.4765625 C-13.8065625 292.11594727 -14.51522461 291.75533203 -15.24536133 291.38378906 C-18.83614229 289.56177032 -22.44021683 287.76645629 -26.04321289 285.96875 C-27.32713067 285.32695017 -28.61098789 284.68502914 -29.89477539 284.04296875 C-32.18970323 282.89550483 -34.49669422 281.77176054 -36.81665039 280.67578125 C-39.41821289 279.28125 -39.41821289 279.28125 -40.41821289 277.28125 C-42.05910942 276.61024053 -43.7329157 276.01881228 -45.41821289 275.46875 C-50.06104822 273.85489803 -54.18072584 271.91579601 -58.41821289 269.44140625 C-60.14773001 268.4381512 -61.93563911 267.53685223 -63.73071289 266.65625 C-66.41821289 265.28125 -66.41821289 265.28125 -68.48071289 263.71875 C-70.70077009 262.07161079 -72.83821558 261.26410612 -75.41821289 260.28125 C-77.41821289 259.28125 -79.41821289 258.28125 -81.41821289 257.28125 C-84.40766907 255.92374285 -87.41057601 254.59792659 -90.41821289 253.28125 C-90.41821289 252.62125 -90.41821289 251.96125 -90.41821289 251.28125 C-91.77946289 251.1265625 -91.77946289 251.1265625 -93.16821289 250.96875 C-96.53947515 250.25559837 -97.80028738 249.39248025 -100.41821289 247.28125 C-102.08176079 246.60683869 -103.74888231 245.9412179 -105.41821289 245.28125 C-107.09401909 244.31443873 -108.76940614 243.34682968 -110.43774414 242.3671875 C-113.98195981 240.42381086 -117.70266468 238.86520252 -121.41821289 237.28125 C-121.41821289 236.62125 -121.41821289 235.96125 -121.41821289 235.28125 C-122.12848633 235.17167969 -122.83875977 235.06210937 -123.57055664 234.94921875 C-126.69500171 234.21632423 -129.13337588 233.06971653 -131.98071289 231.59375 C-133.03129883 231.05492187 -134.08188477 230.51609375 -135.16430664 229.9609375 C-136.77499023 229.12949219 -136.77499023 229.12949219 -138.41821289 228.28125 C-140.45833363 227.25733064 -142.49996681 226.23641837 -144.54321289 225.21875 C-145.52161133 224.72761719 -146.50000977 224.23648438 -147.50805664 223.73046875 C-149.45239119 222.76221624 -151.40301927 221.8065027 -153.35961914 220.86328125 C-154.26583008 220.42371094 -155.17204102 219.98414063 -156.10571289 219.53125 C-156.91395508 219.14453125 -157.72219727 218.7578125 -158.55493164 218.359375 C-160.41821289 217.28125 -160.41821289 217.28125 -161.41821289 215.28125 C-163.18772151 214.4624719 -163.18772151 214.4624719 -165.41821289 213.71875 C-173.44374917 210.66530253 -180.88603289 206.37064703 -188.41821289 202.28125 C-188.41821289 201.62125 -188.41821289 200.96125 -188.41821289 200.28125 C-189.28446289 200.178125 -190.15071289 200.075 -191.04321289 199.96875 C-194.61564471 199.24103241 -197.2744555 198.10901592 -200.41821289 196.28125 C-200.74821289 195.62125 -201.07821289 194.96125 -201.41821289 194.28125 C-203.07518668 193.59084426 -204.743789 192.9281865 -206.41821289 192.28125 C-207.14008789 191.8275 -207.86196289 191.37375 -208.60571289 190.90625 C-212.03416101 188.92536887 -215.58369956 187.66628432 -219.30883789 186.34375 C-221.41821289 185.28125 -221.41821289 185.28125 -222.41821289 182.28125 C-223.29219727 182.18199219 -224.16618164 182.08273437 -225.06665039 181.98046875 C-228.67580583 181.22750975 -230.92796851 180.03755951 -234.04321289 178.09375 C-239.15217112 174.9966424 -244.34106713 172.26502184 -249.70336914 169.63671875 C-253.02580847 167.97788933 -256.22198408 166.16993066 -259.41821289 164.28125 C-259.41821289 163.62125 -259.41821289 162.96125 -259.41821289 162.28125 C-260.51133789 161.971875 -261.60446289 161.6625 -262.73071289 161.34375 C-264.97229283 160.69787103 -267.20514799 160.0189383 -269.41821289 159.28125 C-269.41821289 158.62125 -269.41821289 157.96125 -269.41821289 157.28125 C-269.93125977 157.18714844 -270.44430664 157.09304688 -270.97290039 156.99609375 C-274.35727889 156.00673071 -277.40908389 154.43020087 -280.54321289 152.84375 C-281.49260742 152.37485352 -281.49260742 152.37485352 -282.46118164 151.89648438 C-285.12867044 150.55707652 -287.29368814 149.40577475 -289.41821289 147.28125 C-291.3639575 146.55571811 -293.31079685 145.8328203 -295.26586914 145.1328125 C-298.53286853 143.84024287 -301.39547602 142.07250148 -304.41821289 140.28125 C-305.53196289 139.745 -306.64571289 139.20875 -307.79321289 138.65625 C-310.41821289 137.28125 -310.41821289 137.28125 -311.41821289 135.28125 C-313.24653438 134.62581399 -315.07539136 133.97184397 -316.90649414 133.32421875 C-323.59395507 130.5473104 -329.72445237 126.38670459 -335.79321289 122.46875 C-338.87896141 120.4974785 -341.9215948 119.38993378 -345.41821289 118.28125 C-345.74821289 117.62125 -346.07821289 116.96125 -346.41821289 116.28125 C-348.39559237 115.25947578 -348.39559237 115.25947578 -350.73071289 114.34375 C-353.24802236 113.27508089 -355.29673169 112.37328121 -357.48071289 110.71875 C-359.51565044 109.05754763 -359.51565044 109.05754763 -362.79321289 108.12109375 C-368.7103706 105.95309198 -373.96482194 102.629393 -379.35571289 99.40625 C-381.42682033 98.17883137 -383.49842732 96.95225521 -385.57055664 95.7265625 C-386.55781738 95.14036133 -387.54507813 94.55416016 -388.56225586 93.95019531 C-391.89677624 92.00159031 -395.27366121 90.14281885 -398.67822266 88.31982422 C-400.41821289 87.28125 -400.41821289 87.28125 -402.41821289 85.28125 C-404.08081571 84.60451217 -405.74802818 83.93905335 -407.41821289 83.28125 C-408.9991558 82.37519701 -410.56151831 81.43610495 -412.10571289 80.46875 C-416.4462465 77.80316705 -420.87305354 75.51767403 -425.48461914 73.359375 C-427.41821289 72.28125 -427.41821289 72.28125 -428.41821289 70.28125 C-430.85847559 68.6544082 -433.16978895 67.37440898 -435.91821289 66.34375 C-438.86953796 65.08943685 -440.92138014 63.2787162 -443.41821289 61.28125 C-445.07894139 60.59992549 -446.74597989 59.93382873 -448.41821289 59.28125 C-454.24221289 55.80925 -454.24221289 55.80925 -455.41821289 52.28125 C-447.98964146 53.28125 -447.98964146 53.28125 -444.41821289 54.28125 C-444.41821289 54.94125 -444.41821289 55.60125 -444.41821289 56.28125 C-443.71438477 56.42820312 -443.01055664 56.57515625 -442.28540039 56.7265625 C-436.52733045 58.03453139 -431.24751205 59.67410868 -425.85571289 62.09375 C-420.19795738 64.6145944 -414.51348634 66.67168406 -408.60571289 68.53125 C-407.8296167 68.77721924 -407.05352051 69.02318848 -406.25390625 69.27661133 C-401.65823542 70.69529408 -397.08143998 71.8391492 -392.35693359 72.74511719 C-390.41821289 73.28125 -390.41821289 73.28125 -387.41821289 75.28125 C-385.08138996 76.00637324 -382.72347805 76.6646194 -380.35571289 77.28125 C-379.34480591 77.5450647 -379.34480591 77.5450647 -378.31347656 77.81420898 C-373.84620703 78.9631794 -369.37309884 79.94467811 -364.84008789 80.7890625 C-362.18632462 81.32837568 -359.59633209 82.01787966 -356.98071289 82.71875 C-348.55765341 84.84871906 -340.0153295 86.0903813 -331.41821289 87.28125 C-330.68231934 87.38856445 -329.94642578 87.49587891 -329.18823242 87.60644531 C-297.39261086 92.10885969 -264.23020431 90.45321001 -233.5402832 80.92675781 C-231.2978645 80.24464149 -229.04524657 79.61399904 -226.78540039 78.9921875 C-225.26712065 78.56788926 -223.7488898 78.14341603 -222.23071289 77.71875 C-221.20578735 77.44043335 -221.20578735 77.44043335 -220.16015625 77.15649414 C-215.38449899 75.78450497 -211.64183892 73.81642767 -207.41821289 71.28125 C-205.93190192 70.56463578 -204.43352655 69.87180495 -202.91821289 69.21875 C-201.77352539 68.71988281 -201.77352539 68.71988281 -200.60571289 68.2109375 C-198.71582648 67.40773578 -196.81772789 66.62390795 -194.91821289 65.84375 C-191.43022767 64.28661374 -188.19818712 62.49254302 -184.88305664 60.60546875 C-182.2154796 59.17233306 -179.50110816 57.94043041 -176.73071289 56.71875 C-172.6471451 54.90698627 -169.11403482 52.80112859 -165.41821289 50.28125 C-163.76682306 49.60126595 -162.11494506 48.92234087 -160.45727539 48.2578125 C-157.8442832 47.00637946 -155.52105501 45.44263845 -153.10571289 43.84375 C-148.77509295 41.01425279 -144.57662653 38.92938326 -139.70727539 37.203125 C-137.37482897 36.3363368 -137.37482897 36.3363368 -135.23852539 34.953125 C-131.19863607 32.55828757 -126.95021518 30.70054984 -122.66821289 28.78125 C-121.81227539 28.39066406 -120.95633789 28.00007812 -120.07446289 27.59765625 C-115.24987883 25.42659342 -110.43900561 23.55885529 -105.40112305 21.94726562 C-102.82727824 21.08276813 -100.4203541 19.96871967 -97.98071289 18.78125 C-93.78289266 16.83309033 -89.68108642 15.32285139 -85.22680664 14.0859375 C-83.16258974 13.4945207 -81.11473198 12.84523182 -79.07836914 12.1640625 C-71.00803473 9.48227955 -62.93176384 7.39655843 -54.60571289 5.65625 C-53.22198486 5.36548584 -53.22198486 5.36548584 -51.81030273 5.06884766 C-48.68568462 4.43642709 -45.5537053 3.85734217 -42.41821289 3.28125 C-41.77272491 3.15210205 -41.12723694 3.0229541 -40.46218872 2.88989258 C-26.95785312 0.20735847 -13.74206102 -0.12289414 0 0 Z " fill="#FCFCFC" transform="translate(877.418212890625,575.71875)"/>
<!-- remaining paths truncated for brevity -->
</svg>

